Coordinates
version=1
nRows=15
nColumns=42
inDegrees=yes

Units are S.I. units (second, meters, Newtons, ...)
If the header above contains a line with 'inDegrees', this indicates whether rotational values are in degrees (yes) or radians (no).

endheader
time	pelvis_tilt	pelvis_list	pelvis_rotation	pelvis_tx	pelvis_ty	pelvis_tz	hip_flexion_r	hip_adduction_r	hip_rotation_r	knee_angle_r	knee_adduction_r	knee_angle_r_beta	ankle_angle_r	subtalar_angle_r	mtp_angle_r	hip_flexion_l	hip_adduction_l	hip_rotation_l	knee_angle_l	knee_adduction_l	knee_angle_l_beta	ankle_angle_l	subtalar_angle_l	mtp_angle_l	lumbar_extension	lumbar_bending	lumbar_rotation	arm_flex_r	arm_add_r	arm_rot_r	elbow_flex_r	pro_sup_r	wrist_flex_r	wrist_dev_r	arm_flex_l	arm_add_l	arm_rot_l	elbow_flex_l	pro_sup_l	wrist_flex_l	wrist_dev_l
      1.62000000	      9.05155843	     -3.69833872	     -2.17432055	      0.72871393	      0.87781127	     -0.23951320	      0.21751140	      8.44485428	      3.41896795	     27.26641991	     -2.19493860	      0.47588880	     19.38700660	      0.19641177	     -7.50483662	     -3.23491183	     -9.22611032	    -16.33126436	     68.27345683	     -9.19153925	      1.19159661	      1.55075877	    -14.86043793	     -7.50483662	    -19.91514363	      1.71620201	     -3.12203490	     -3.46629352	     -2.27920513	    -21.70286181	     37.89174600	     90.00000001	      0.00000000	      0.00000000	     -2.01572485	     -5.81715011	    -12.65189080	     43.99676153	     90.00000001	      0.00000000	      0.00000000
      1.63000000	      9.13581231	     -3.18202332	     -2.24123285	      0.73927665	      0.87947427	     -0.23796843	     -1.10661847	      7.98626475	      3.53215622	     26.32068375	     -2.36804066	      0.45938259	     19.57218828	      0.49684469	     -7.50474399	     -1.40248862	     -8.64490632	    -16.21723045	     69.25877236	     -9.54265916	      1.20879361	      2.88754457	    -14.56144651	     -7.50474399	    -20.02880974	      1.05811244	     -2.66504388	     -3.36142324	     -2.16181941	    -21.51861809	     38.60871689	     90.00000001	      0.00000000	      0.00000000	     -1.96905828	     -5.81793581	    -12.66031531	     43.79753356	     90.00000001	      0.00000000	      0.00000000
      1.64000000	      9.21283033	     -2.67164699	     -2.38057639	      0.74979465	      0.88102083	     -0.23642238	     -2.45861701	      7.52783476	      3.70416938	     25.28781483	     -2.55139112	      0.44135563	     19.73340781	      0.84255381	     -7.50465791	      0.35384449	     -8.05734862	    -16.04927591	     69.91903312	     -9.66447401	      1.22031734	      4.30579963	    -14.10244351	     -7.50465791	    -20.12528358	      0.39640332	     -2.13833871	     -3.30739134	     -2.09059233	    -21.20486815	     39.45312710	     90.00000001	      0.00000000	      0.00000000	     -1.91992434	     -5.79738384	    -12.68741869	     43.59831312	     90.00000001	      0.00000000	      0.00000000
      1.65000000	      9.28767702	     -2.18893270	     -2.55036930	      0.76033499	      0.88235734	     -0.23486769	     -3.80982024	      7.06939809	      3.85574226	     24.23748187	     -2.70527620	      0.42302386	     19.87617946	      1.18769449	     -7.50457715	      2.05019069	     -7.53259064	    -15.87178021	     70.31047314	     -9.58066045	      1.22714925	      5.69248970	    -13.56806634	     -7.50457715	    -20.19982480	     -0.23496294	     -1.53841349	     -3.31867823	     -2.06598954	    -20.81343802	     40.32969183	     90.00000001	      0.00000000	      0.00000000	     -1.89677465	     -5.77761516	    -12.74418240	     43.43439990	     90.00000001	      0.00000000	      0.00000000
      1.66000000	      9.34678857	     -1.72849186	     -2.72389592	      0.77081149	      0.88355342	     -0.23355349	     -5.22863457	      6.59695487	      4.18796043	     22.96900427	     -2.79365969	      0.40088475	     20.05002870	      1.62835288	     -7.50448760	      3.68085310	     -6.98887421	    -15.60056539	     70.34744667	     -9.32257062	      1.22779456	      7.28428743	    -12.98794686	     -7.50448760	    -20.25958649	     -0.79846713	     -0.97933201	     -3.37249684	     -2.11974190	    -20.25961939	     41.44471022	     90.00000001	      0.00000000	      0.00000000	     -1.88738337	     -5.72503071	    -12.83571807	     43.23661310	     90.00000001	      0.00000000	      0.00000000
      1.67000000	      9.47990778	     -1.35094387	     -2.91097071	      0.78138376	      0.88458873	     -0.23221766	     -6.75184915	      6.19418830	      4.55782514	     21.67617300	     -2.85646579	      0.37832059	     20.16354654	      2.03922163	     -7.50438741	      5.14692649	     -6.54400004	    -15.27359206	     70.10709304	     -8.90288587	      1.22359960	      8.73569796	    -12.40730843	     -7.50438741	    -20.38000074	     -1.27781130	     -0.39430645	     -3.45265070	     -2.24314394	    -19.55815680	     42.58289503	     90.00000001	      0.00000000	      0.00000000	     -1.90510874	     -5.67415171	    -12.98075299	     43.07263376	     90.00000001	      0.00000000	      0.00000000
      1.68000000	      9.46407870	     -1.01886432	     -3.09066617	      0.79190042	      0.88522202	     -0.23081321	     -8.03434178	      5.89006011	      4.59799038	     20.50538333	     -3.06386965	      0.35788645	     20.21211464	      2.33270988	     -7.50430140	      6.74630710	     -6.20573147	    -15.03694870	     69.61850244	     -8.43532592	      1.21507209	      9.89841241	    -12.10573258	     -7.50430140	    -20.33692963	     -1.71160754	      0.19980934	     -3.49923153	     -2.36775393	    -19.01968279	     43.56200826	     90.00000001	      0.00000000	      0.00000000	     -1.97283683	     -5.61357294	    -13.12017546	     43.00765898	     90.00000001	      0.00000000	      0.00000000
      1.69000000	      9.78616587	     -0.79136311	     -3.25233633	      0.80265544	      0.88608818	     -0.22964360	     -9.93523527	      5.58794891	      5.15296201	     18.85186179	     -3.04851142	      0.32902706	     20.18668322	      2.68820915	     -7.50414716	      7.80380519	     -5.90845954	    -14.42128506	     68.74844135	     -7.57200616	      1.19988666	     10.94362368	    -11.94687236	     -7.50414716	    -20.64352090	     -2.00421606	      0.75969111	     -3.63765239	     -2.64480783	    -17.98930033	     44.78749120	     90.00000001	      0.00000000	      0.00000000	     -2.04630376	     -5.51510209	    -13.41018000	     42.87071502	     90.00000001	      0.00000000	      0.00000000
      1.70000000	      9.83669234	     -0.58245846	     -3.35807907	      0.81327248	      0.88640675	     -0.22847301	    -11.44357262	      5.40836410	      5.45348101	     17.39535512	     -3.22130672	      0.30360622	     19.99784063	      2.70254453	     -7.50394213	      9.16516011	     -5.63057956	    -13.93343738	     67.67433886	     -6.84856215	      1.18114003	     11.64996217	    -12.30925564	     -7.50394213	    -20.66170084	     -2.25342674	      1.22333779	     -3.63877808	     -2.83658521	    -17.35436843	     45.76512516	     90.00000001	      0.00000000	      0.00000000	     -2.19861038	     -5.45114005	    -13.65262289	     42.84331750	     90.00000001	      0.00000000	      0.00000000
      1.71000000	      9.78640016	     -0.41295164	     -3.43645321	      0.82384641	      0.88636455	     -0.22740123	    -12.77796236	      5.24310316	      5.49226543	     16.04481273	     -3.37004371	      0.28003481	     19.92620408	      3.09106424	     -7.50375660	     10.57247856	     -5.38204687	    -13.33659056	     66.36009853	     -5.99378756	      1.15820221	     12.17325276	    -12.81130130	     -7.50375660	    -20.57473179	     -2.42961191	      1.66803169	     -3.61448562	     -2.99132014	    -16.95328196	     46.70802195	     90.00000001	      0.00000000	      0.00000000	     -2.35337453	     -5.38220645	    -13.85111693	     42.78258633	     90.00000001	      0.00000000	      0.00000000
      1.72000000	      9.46436303	     -0.30777189	     -3.50317969	      0.83431426	      0.88572755	     -0.22630508	    -13.65401659	      5.19170925	      5.10375512	     15.00908488	     -3.58155447	      0.26195795	     19.97420425	      3.60983505	     -7.50368295	     12.26637772	     -5.22855582	    -13.01170086	     64.87305598	     -5.37036431	      1.13224842	     12.74416582	    -12.99115073	     -7.50368295	    -20.19930153	     -2.52115930	      2.12300898	     -3.55989427	     -3.10903429	    -16.76340407	     47.56078274	     90.00000001	      0.00000000	      0.00000000	     -2.53643533	     -5.33701868	    -13.96436091	     42.73258490	     90.00000001	      0.00000000	      0.00000000
      1.73000000	      9.53401969	     -0.21424723	     -3.44753955	      0.84508038	      0.88545859	     -0.22555071	    -15.21753625	      5.05408509	      4.96434083	     13.43617709	     -3.63288347	      0.23450553	     19.92674499	      4.77570060	     -7.50358353	     13.30153056	     -4.98548276	    -12.15312553	     62.91526433	     -4.23652327	      1.09807851	     12.97731104	    -13.60983466	     -7.50358353	    -20.24326008	     -2.54427205	      2.35994379	     -3.51197855	     -3.30019168	    -16.33941903	     48.56722526	     90.00000001	      0.00000000	      0.00000000	     -2.73909376	     -5.27529718	    -14.21349380	     42.57803137	     90.00000001	      0.00000000	      0.00000000
      1.74000000	      9.57361800	     -0.13144604	     -3.41751707	      0.85584993	      0.88495615	     -0.22471253	    -16.63303386	      4.95266585	      4.52210889	     12.11487204	     -3.70161003	      0.21144441	     19.82756715	      5.71937453	     -7.50348422	     14.26798659	     -4.76644729	    -11.53972482	     60.66112397	     -3.22944730	      1.05873634	     13.00392340	    -14.10163264	     -7.50348422	    -20.24961242	     -2.57429296	      2.55862434	     -3.37042966	     -3.45891516	    -15.95618672	     49.35384796	     90.00000001	      0.00000000	      0.00000000	     -2.99454504	     -5.22005756	    -14.45285232	     42.52417527	     90.00000001	      0.00000000	      0.00000000
      1.75000000	      9.16855180	     -0.40330227	     -3.55316419	      0.86613251	      0.88370412	     -0.22350829	    -17.11762413	      5.24364651	      3.74681440	     11.79415350	     -3.66468652	      0.20584681	     19.98602665	      5.81570065	     -7.50343848	     15.72689393	     -5.05992435	    -11.58397960	     58.33561891	     -2.70740291	      1.01814862	     12.98371711	    -13.71189582	     -7.50343848	    -19.83888608	     -2.26877647	      3.02866364	     -3.07593426	     -3.59387212	    -15.83851288	     49.77808914	     90.00000001	      0.00000000	      0.00000000	     -3.30967837	     -5.16820784	    -14.49560326	     42.59910097	     90.00000001	      0.00000000	      0.00000000
      1.76000000	      9.50532602	     -0.11362529	     -3.27412923	      0.87722369	      0.88326361	     -0.22313609	    -19.18433032	      4.99739394	      3.40321806	      9.72429099	     -3.89804063	      0.16972090	     19.64003178	      7.76142215	     -7.50335126	     16.01877131	     -4.45171029	    -10.50964124	     55.32092867	     -1.27958788	      0.96553235	     12.97975911	    -14.24677508	     -7.50335126	    -20.16699652	     -2.44198766	      2.94133444	     -3.06999731	     -3.77773334	    -15.36886392	     50.78824459	     90.00000001	      0.00000000	      0.00000000	     -3.40964805	     -5.11045036	    -14.90347255	     42.27986326	     90.00000001	      0.00000000	      0.00000000
